<svg width="1200" height="630" viewBox="0 0 1200 630" fill="none" xmlns="http://www.w3.org/2000/svg">
<rect width="1200" height="630" fill="white" fill-opacity="0.17"/>
<path fill-rule="evenodd" clip-rule="evenodd" d="M164.5 110C145.446 110 130 125.446 130 144.5C130 163.554 145.446 179 164.5 179H560.629H962.5C981.554 179 997 163.554 997 144.5C997 125.446 981.554 110 962.5 110H164.5ZM290.044 206C270.714 206 255.044 221.67 255.044 241V437C255.044 456.33 270.714 472 290.044 472H290.935C310.265 472 325.935 456.33 325.935 437V241C325.935 221.67 310.265 206 290.935 206H290.044ZM554.36 430V423.686L577.156 379.078H554.36V372.6H584.372V378.832L561.576 423.44H584.454L584.372 430H554.36ZM628.853 430.41V423.85C629.837 423.85 630.903 423.631 632.051 423.194C633.199 422.702 634.265 422.019 635.249 421.144C636.288 420.269 637.135 419.203 637.791 417.946C638.447 416.634 638.775 415.158 638.775 413.518V389C638.775 387.852 638.529 386.704 638.037 385.556C637.6 384.353 636.944 383.233 636.069 382.194C635.249 381.155 634.238 380.335 633.035 379.734C631.833 379.078 630.439 378.75 628.853 378.75V372.19C631.423 372.19 633.719 372.682 635.741 373.666C637.764 374.65 639.486 375.935 640.907 377.52C642.329 379.105 643.422 380.8 644.187 382.604C644.953 384.353 645.335 386.048 645.335 387.688V413.682C645.335 416.415 644.816 418.821 643.777 420.898C642.739 422.975 641.399 424.725 639.759 426.146C638.119 427.567 636.343 428.633 634.429 429.344C632.516 430.055 630.657 430.41 628.853 430.41ZM624.343 430.41C622.703 430.41 620.927 430.055 619.013 429.344C617.155 428.633 615.378 427.567 613.683 426.146C611.989 424.725 610.595 422.975 609.501 420.898C608.463 418.821 607.943 416.415 607.943 413.682V387.688C607.943 386.048 608.326 384.326 609.091 382.522C609.857 380.718 610.95 379.051 612.371 377.52C613.793 375.935 615.515 374.65 617.537 373.666C619.615 372.682 621.911 372.19 624.425 372.19V378.75C622.895 378.75 621.501 379.078 620.243 379.734C619.041 380.335 618.002 381.183 617.127 382.276C616.307 383.315 615.651 384.435 615.159 385.638C614.722 386.786 614.503 387.907 614.503 389V413.518C614.503 415.158 614.831 416.607 615.487 417.864C616.198 419.121 617.045 420.215 618.029 421.144C619.068 422.019 620.134 422.702 621.227 423.194C622.375 423.631 623.414 423.85 624.343 423.85V430.41ZM702.582 430L669.29 376.782V372.6H674.948L705.78 421.882V430H702.582ZM669.29 430V384.572H669.946L675.85 394.084V430H669.29ZM705.124 414.01L699.22 404.334V372.6H705.78V414.01H705.124ZM729.831 430V372.6H759.679V379.078H736.391V398.184H751.971V404.662H736.391V423.522H759.679V430H729.831ZM468.432 228.781H460.256C451.962 229.255 445.148 232.454 439.816 238.379C434.484 244.185 430.633 250.82 428.264 258.285C425.894 265.75 424.709 273.393 424.709 281.213C424.709 289.033 425.835 296.676 428.086 304.141C430.456 311.605 434.307 318.3 439.639 324.225C445.089 330.031 451.962 333.171 460.256 333.645H463.633H528.861C532.061 333.526 534.727 332.4 536.859 330.268C539.111 328.016 540.296 325.291 540.414 322.092C540.414 318.774 539.288 315.93 537.037 313.561C534.904 311.191 532.179 309.947 528.861 309.828H466.299C461.796 309.591 458.064 307.873 455.102 304.674C452.139 301.475 449.947 297.861 448.525 293.832C447.222 289.685 446.57 285.479 446.57 281.213C446.57 276.947 447.222 272.8 448.525 268.771C449.947 264.624 452.139 260.951 455.102 257.752C458.064 254.553 461.796 252.835 466.299 252.598H528.861C535.971 252.005 539.822 248.154 540.414 241.045C540.414 237.727 539.288 234.883 537.037 232.514C534.904 230.144 532.179 228.9 528.861 228.781H468.432ZM536.504 288.855C538.874 286.604 540.059 283.82 540.059 280.502C540.059 277.184 538.874 274.4 536.504 272.148C534.253 269.779 531.468 268.594 528.15 268.594H474.475C471.157 268.594 468.313 269.719 465.943 271.971C463.692 274.34 462.566 277.184 462.566 280.502C462.566 283.82 463.692 286.663 465.943 289.033C468.313 291.285 471.157 292.41 474.475 292.41H528.15C531.468 292.41 534.253 291.225 536.504 288.855ZM619.158 268.771C620.461 264.624 622.594 260.951 625.556 257.752C628.637 254.553 632.428 252.835 636.931 252.598H695.583C698.901 252.598 701.745 251.531 704.115 249.398C706.603 247.147 707.847 244.363 707.847 241.045C707.136 233.58 703.048 229.492 695.583 228.781H634.087H630.71C624.667 228.9 619.276 230.796 614.536 234.469C609.915 238.142 606.183 242.585 603.339 247.799C600.614 252.894 598.6 258.285 597.296 263.973C595.993 269.66 595.341 275.407 595.341 281.213C595.341 289.033 596.467 296.676 598.718 304.141C601.088 311.605 604.939 318.3 610.271 324.225C615.603 330.031 622.416 333.171 630.71 333.645H638.886H695.583C698.901 333.645 701.745 332.578 704.115 330.445C706.484 328.194 707.728 325.41 707.847 322.092C707.136 314.627 703.048 310.539 695.583 309.828H636.931C632.428 309.591 628.637 307.932 625.556 304.852C622.475 301.652 620.283 297.979 618.98 293.832C617.795 289.685 617.202 285.479 617.202 281.213C617.202 276.947 617.854 272.8 619.158 268.771ZM782.858 229.492C780.607 227.241 777.881 226.056 774.682 225.938C771.365 225.938 768.521 227.063 766.151 229.314C763.781 231.447 762.537 234.173 762.419 237.49V324.58C762.419 327.898 763.603 330.682 765.973 332.934C768.461 335.066 771.365 336.133 774.682 336.133C781.792 335.54 785.702 331.689 786.413 324.58V290.988H844.176V324.58C844.176 327.898 845.361 330.682 847.731 332.934C850.219 335.066 853.122 336.133 856.44 336.133C863.549 335.54 867.46 331.689 868.17 324.58V237.49C868.052 234.291 866.867 231.625 864.616 229.492C862.365 227.241 859.639 226.056 856.44 225.938C853.122 225.938 850.279 227.063 847.909 229.314C845.539 231.447 844.295 234.173 844.176 237.49V267.172H786.413V237.49C786.294 234.291 785.109 231.625 782.858 229.492ZM789.681 395H958.246V403H789.681V395ZM529.946 395H361.381V403H529.946V395Z" fill="url(#paint0_linear_44_13)"/>
<defs>
<linearGradient id="paint0_linear_44_13" x1="617" y1="38" x2="611.149" y2="485.924" gradientUnits="userSpaceOnUse">
<stop stop-color="#FF0080" stop-opacity="0.76"/>
<stop offset="0.528992" stop-color="#FF8C00" stop-opacity="0.887457"/>
<stop offset="0.996085" stop-color="#40E0D0"/>
</linearGradient>
</defs>
</svg>
